<?xml version="1.0" standalone="no"?>
<!DOCTYPE svg PUBLIC "-//W3C//DTD SVG 20010904//EN"
 "http://www.w3.org/TR/2001/REC-SVG-20010904/DTD/svg10.dtd">
<svg version="1.0" xmlns="http://www.w3.org/2000/svg"
 width="3454.000000pt" height="3454.000000pt" viewBox="0 0 3454.000000 3454.000000"
 preserveAspectRatio="xMidYMid meet">
<metadata>
Created by potrace 1.11, written by Peter Selinger 2001-2013
</metadata>
<g transform="translate(0.000000,3454.000000) scale(0.100000,-0.100000)"
fill="#000000" stroke="none">
<path d="M20408 32265 c-1 -2 -79 -6 -173 -10 -93 -3 -181 -8 -195 -10 -23 -3
-190 -16 -270 -20 -68 -4 -307 -28 -390 -40 -14 -2 -59 -7 -100 -10 -41 -3
-82 -8 -90 -10 -8 -2 -40 -7 -70 -10 -30 -3 -62 -8 -70 -10 -8 -2 -40 -7 -70
-10 -30 -3 -66 -8 -80 -10 -14 -2 -54 -9 -90 -14 -36 -6 -83 -13 -105 -16 -22
-3 -62 -10 -90 -15 -27 -5 -66 -12 -85 -15 -19 -3 -46 -7 -60 -10 -14 -3 -41
-7 -60 -11 -19 -3 -71 -12 -115 -20 -44 -8 -91 -17 -105 -19 -14 -2 -36 -7
-50 -10 -14 -3 -36 -7 -50 -10 -14 -2 -81 -16 -150 -30 -69 -15 -136 -28 -150
-31 -81 -16 -612 -141 -760 -180 -96 -25 -193 -50 -215 -55 -171 -42 -680
-193 -1065 -317 -96 -31 -177 -57 -180 -57 -3 -1 -12 -4 -20 -8 -8 -3 -100
-35 -205 -70 -104 -36 -242 -84 -305 -107 -63 -23 -181 -66 -261 -95 -149 -55
-538 -205 -596 -231 -17 -8 -34 -14 -38 -14 -3 0 -25 -9 -48 -19 -23 -11 -150
-64 -282 -119 -227 -94 -286 -120 -413 -178 -29 -13 -54 -24 -56 -24 -2 0 -42
-17 -88 -39 -45 -21 -117 -53 -158 -71 -41 -18 -145 -66 -230 -107 -85 -41
-172 -82 -193 -90 -46 -19 -747 -369 -892 -446 -261 -138 -316 -167 -390 -207
-44 -23 -84 -46 -90 -50 -5 -4 -41 -24 -78 -44 -37 -20 -84 -46 -105 -58 -20
-11 -82 -46 -137 -76 -55 -30 -147 -83 -205 -117 -409 -241 -555 -330 -558
-337 -2 -4 -7 -8 -12 -8 -10 0 -283 -168 -445 -274 -60 -40 -159 -103 -218
-141 -59 -39 -157 -104 -217 -145 -240 -165 -474 -326 -504 -348 -17 -12 -42
-30 -56 -40 -30 -20 -270 -192 -285 -204 -43 -34 -154 -118 -261 -198 -116
-86 -195 -147 -279 -215 -16 -13 -102 -81 -190 -151 -160 -128 -489 -401 -555
-461 -19 -17 -46 -41 -60 -53 -129 -111 -340 -300 -425 -381 -38 -36 -99 -93
-135 -125 -79 -72 -551 -543 -675 -674 -99 -104 -256 -276 -265 -289 -5 -8
-130 -149 -160 -180 -8 -9 -44 -52 -80 -96 -35 -44 -71 -87 -80 -95 -28 -27
-252 -311 -378 -480 -67 -91 -126 -169 -130 -175 -46 -61 -125 -176 -204 -295
-53 -80 -144 -203 -203 -275 -59 -71 -116 -143 -128 -158 -12 -15 -32 -40 -45
-55 -12 -15 -42 -52 -65 -82 -23 -30 -44 -57 -47 -60 -9 -8 -193 -248 -332
-430 -133 -176 -347 -467 -413 -563 -22 -31 -82 -117 -132 -190 -79 -112 -284
-421 -333 -501 -326 -530 -410 -704 -695 -1441 -36 -93 -70 -179 -75 -190 -5
-11 -32 -81 -60 -155 -28 -74 -56 -144 -60 -155 -22 -49 -80 -200 -80 -207 0
-5 -9 -27 -19 -51 -20 -44 -212 -543 -260 -675 -15 -42 -71 -192 -124 -332
-53 -140 -119 -320 -147 -400 -28 -80 -55 -154 -60 -165 -5 -11 -25 -67 -45
-125 -20 -58 -43 -123 -52 -145 -8 -22 -49 -139 -90 -260 -41 -121 -90 -263
-108 -315 -18 -52 -72 -216 -120 -365 -48 -148 -100 -308 -116 -355 -45 -134
-208 -678 -224 -750 -2 -8 -13 -46 -25 -85 -53 -179 -265 -1035 -285 -1150 -3
-16 -17 -82 -30 -145 -27 -126 -25 -117 -60 -310 -14 -74 -27 -144 -29 -155
-2 -11 -7 -40 -11 -65 -4 -25 -9 -52 -10 -60 -1 -8 -6 -40 -10 -70 -4 -30 -9
-64 -11 -75 -2 -11 -6 -38 -9 -60 -3 -22 -12 -87 -20 -145 -8 -58 -17 -132
-20 -165 -3 -33 -8 -76 -10 -95 -2 -19 -7 -64 -10 -100 -3 -36 -8 -85 -10
-110 -14 -143 -19 -308 -19 -570 0 -350 11 -527 49 -755 3 -16 7 -50 11 -75 3
-25 9 -58 14 -75 5 -16 16 -66 25 -110 22 -103 67 -259 95 -330 4 -11 23 -58
41 -105 38 -98 145 -312 244 -485 56 -99 248 -403 278 -440 4 -5 51 -68 104
-140 53 -71 102 -134 108 -140 6 -5 29 -32 50 -60 22 -27 42 -52 46 -55 3 -3
35 -39 70 -80 82 -96 351 -365 449 -449 41 -36 82 -72 90 -80 8 -8 71 -60 140
-114 271 -216 574 -416 905 -600 51 -27 410 -205 475 -234 19 -9 42 -19 51
-24 9 -4 78 -33 155 -64 76 -30 148 -60 159 -65 41 -19 355 -130 490 -174 325
-105 698 -197 1260 -311 94 -19 229 -48 300 -65 72 -17 143 -33 158 -36 16 -2
32 -6 36 -8 3 -2 87 -23 186 -45 99 -22 306 -70 460 -106 154 -36 309 -72 345
-80 36 -8 162 -37 280 -65 118 -28 274 -64 345 -80 128 -30 194 -45 410 -95
61 -15 121 -28 135 -31 14 -3 43 -10 65 -16 22 -5 50 -12 62 -14 12 -2 88 -20
170 -40 165 -39 315 -73 353 -80 14 -3 39 -9 55 -14 17 -5 41 -11 55 -14 14
-2 66 -14 115 -26 50 -12 101 -24 115 -26 14 -3 43 -10 65 -16 22 -5 50 -12
63 -14 12 -3 62 -14 110 -25 48 -12 94 -22 102 -24 42 -9 423 -98 475 -111 33
-8 69 -16 80 -18 11 -2 58 -13 105 -24 47 -12 137 -32 200 -47 63 -14 140 -32
170 -40 31 -8 76 -19 100 -24 25 -5 164 -36 310 -71 317 -74 299 -70 330 -76
14 -3 43 -10 65 -15 22 -5 78 -18 125 -29 47 -10 121 -27 165 -38 44 -12 152
-37 240 -57 88 -19 171 -39 185 -42 14 -3 33 -8 42 -9 10 -2 83 -19 161 -38
79 -20 155 -37 168 -40 21 -4 114 -25 634 -147 72 -17 157 -36 190 -44 33 -7
119 -27 190 -44 72 -17 168 -39 215 -50 98 -22 311 -72 455 -106 55 -13 161
-38 235 -54 74 -17 173 -40 220 -51 47 -11 164 -38 260 -60 96 -22 184 -43
195 -46 11 -3 30 -7 43 -10 13 -2 83 -18 155 -35 178 -42 297 -69 327 -75 14
-3 52 -12 85 -21 33 -8 68 -17 78 -18 23 -5 302 -69 457 -106 69 -16 175 -41
235 -55 61 -14 121 -28 135 -31 14 -3 33 -8 42 -9 10 -2 66 -16 125 -30 59
-14 119 -28 133 -31 27 -5 32 -6 70 -16 21 -6 438 -102 480 -112 8 -1 65 -15
125 -29 61 -14 209 -48 330 -77 121 -28 229 -53 240 -55 11 -3 31 -7 45 -10
25 -5 262 -60 575 -134 89 -20 209 -48 240 -55 11 -2 61 -14 110 -25 50 -12
101 -23 114 -26 14 -3 28 -7 31 -9 4 -2 22 -7 40 -10 34 -6 244 -54 456 -105
66 -16 131 -31 145 -34 13 -2 56 -12 94 -21 78 -18 80 -19 150 -35 118 -26
313 -72 345 -80 19 -6 46 -12 60 -14 42 -8 333 -76 365 -86 17 -5 46 -12 65
-15 32 -5 72 -14 265 -60 181 -43 320 -75 339 -79 11 -3 120 -28 241 -56 121
-28 276 -64 345 -80 69 -16 204 -48 300 -70 96 -23 186 -44 200 -46 14 -3 120
-28 235 -55 116 -27 219 -51 230 -53 20 -4 133 -30 280 -65 195 -46 442 -103
460 -106 11 -3 115 -27 230 -54 116 -27 221 -52 235 -55 14 -3 39 -8 55 -11
17 -4 84 -19 150 -35 253 -61 333 -80 425 -100 52 -12 102 -23 110 -25 38 -9
514 -120 585 -136 44 -11 109 -26 145 -34 36 -8 142 -32 235 -54 94 -22 173
-37 176 -33 3 4 48 115 98 247 51 132 97 249 102 260 5 11 34 85 65 165 30 80
79 204 107 275 28 72 52 132 53 135 0 3 6 19 13 35 7 17 66 170 132 340 66
171 125 319 130 330 5 11 70 178 144 370 75 193 140 359 145 370 5 11 52 133
105 270 53 138 102 264 109 280 8 17 20 46 26 65 7 19 19 49 25 65 7 17 18 46
25 65 7 19 19 49 26 65 7 17 33 82 57 145 104 271 149 386 158 405 5 11 34 85
64 165 31 80 60 155 65 168 6 12 14 32 20 45 5 12 16 40 23 62 8 22 67 175
132 340 65 165 135 343 155 395 38 98 127 327 162 415 11 28 30 77 42 110 75
196 381 977 397 1012 10 24 19 47 19 53 0 6 4 18 10 28 5 9 46 112 91 227 44
116 84 219 89 230 5 11 26 63 46 115 20 52 60 156 89 230 29 74 121 311 205
525 83 215 155 399 160 410 5 11 61 153 124 315 63 162 135 349 161 415 25 66
50 129 55 140 5 11 104 265 221 565 241 621 322 829 384 985 40 102 139 355
250 640 26 66 114 293 197 505 83 212 182 466 220 565 39 99 76 194 83 210 7
17 27 68 45 115 17 47 36 94 40 105 5 11 30 74 55 140 26 66 71 181 100 255
69 177 110 281 185 475 34 88 65 169 70 180 5 11 30 74 56 140 25 66 78 203
118 305 40 102 99 253 130 335 32 83 62 159 66 170 18 40 42 103 97 245 30 80
61 159 69 175 7 17 56 143 109 280 53 138 103 264 110 280 13 30 116 296 232
595 35 91 67 174 72 185 5 11 27 67 50 125 22 58 74 193 116 300 42 107 108
276 146 375 38 99 73 189 78 200 6 11 25 61 44 110 90 234 139 362 147 380 12
25 119 301 199 510 34 88 66 169 71 180 9 20 53 132 154 391 30 78 83 202 119
275 71 147 217 466 217 474 0 2 11 28 24 57 45 99 174 433 235 608 156 450
273 896 346 1315 2 17 7 39 9 50 5 28 17 101 21 128 1 12 10 74 18 137 9 63
19 147 23 185 3 39 8 84 10 100 25 186 25 908 -1 1110 -2 17 -6 64 -9 105 -4
41 -9 89 -11 105 -3 17 -7 48 -10 69 -3 21 -7 48 -10 60 -2 12 -7 43 -10 69
-3 26 -10 71 -16 100 -5 29 -12 63 -14 77 -3 14 -7 36 -10 50 -3 14 -8 41 -11
60 -19 111 -122 492 -180 669 -55 165 -187 439 -289 596 -250 387 -596 760
-1027 1107 -64 52 -127 102 -140 111 -13 9 -48 35 -78 58 -68 50 -322 227
-367 254 -203 125 -357 218 -398 240 -27 15 -84 46 -125 69 -327 181 -815 392
-1362 590 -238 86 -796 272 -1038 346 -74 23 -162 50 -195 61 -114 36 -911
268 -1540 448 -1177 337 -1699 495 -2235 676 -393 133 -506 167 -640 196 -99
21 -308 53 -420 64 -36 3 -81 8 -100 10 -182 21 -852 33 -1113 20 -43 -2 -148
-6 -235 -10 -86 -3 -179 -8 -207 -10 -27 -2 -93 -6 -145 -10 -113 -8 -165 -12
-375 -30 -63 -6 -119 0 -410 40 -44 6 -130 14 -215 20 -41 3 -97 8 -125 10
-137 14 -1036 31 -1047 20z"/>
</g>
</svg>
